<svg xmlns="http://www.w3.org/2000/svg" xmlns:xlink="http://www.w3.org/1999/xlink" width="500" zoomAndPan="magnify" viewBox="0 0 375 374.999991" height="500" preserveAspectRatio="xMidYMid meet" version="1.0"><defs><clipPath id="1be09671c2"><path d="M 0.28125 99 L 126 99 L 126 243 L 0.28125 243 Z M 0.28125 99 " clip-rule="nonzero"/></clipPath><clipPath id="a868e44581"><path d="M 0.28125 0 L 337.960938 0 L 337.960938 212 L 0.28125 212 Z M 0.28125 0 " clip-rule="nonzero"/></clipPath><clipPath id="5c5dba013e"><path d="M 5 0 L 337.960938 0 L 337.960938 238 L 5 238 Z M 5 0 " clip-rule="nonzero"/></clipPath><clipPath id="814ba83b31"><path d="M 10 127 L 143 127 L 143 254.398438 L 10 254.398438 Z M 10 127 " clip-rule="nonzero"/></clipPath><clipPath id="5f6d5cab5b"><path d="M 62 125 L 227 125 L 227 254.398438 L 62 254.398438 Z M 62 125 " clip-rule="nonzero"/></clipPath><clipPath id="96546a7f82"><path d="M 109 0 L 337.960938 0 L 337.960938 254.398438 L 109 254.398438 Z M 109 0 " clip-rule="nonzero"/></clipPath><clipPath id="069bef710f"><path d="M 25 148 L 190 148 L 190 254.398438 L 25 254.398438 Z M 25 148 " clip-rule="nonzero"/></clipPath><clipPath id="4c777e36e0"><path d="M 30 0 L 337.960938 0 L 337.960938 254.398438 L 30 254.398438 Z M 30 0 " clip-rule="nonzero"/></clipPath><clipPath id="2c6d5355f5"><rect x="0" width="338" y="0" height="255"/></clipPath></defs><g transform="matrix(1, 0, 0, 1, 29, 54)"><g clip-path="url(#2c6d5355f5)"><g clip-path="url(#1be09671c2)"><path stroke-linecap="butt" transform="matrix(2.21722, 1.100783, -1.100783, 2.21722, 9.13213, 150.73988)" fill="none" stroke-linejoin="miter" d="M -0.0000543385 2.000686 L 28.362342 1.999738 " stroke="#000000" stroke-width="4" stroke-opacity="1" stroke-miterlimit="4"/></g><g clip-path="url(#a868e44581)"><path stroke-linecap="butt" transform="matrix(2.313116, -0.881637, 0.881637, 2.313116, 5.167179, 150.54261)" fill="none" stroke-linejoin="miter" d="M -0.000163517 1.99956 L 129.679455 2.00054 " stroke="#000000" stroke-width="4" stroke-opacity="1" stroke-miterlimit="4"/></g><g clip-path="url(#5c5dba013e)"><path stroke-linecap="butt" transform="matrix(2.145993, -1.233898, 1.233898, 2.145993, 59.327455, 177.470361)" fill="none" stroke-linejoin="miter" d="M 0.000695169 2.000107 L 114.212492 2.000061 " stroke="#000000" stroke-width="4" stroke-opacity="1" stroke-miterlimit="4"/></g><g clip-path="url(#814ba83b31)"><path stroke-linecap="butt" transform="matrix(1.006717, 2.261484, -2.261484, 1.006717, 70.842064, 181.768621)" fill="none" stroke-linejoin="miter" d="M -0.0000971626 1.999419 L 20.343939 1.999513 " stroke="#000000" stroke-width="4" stroke-opacity="1" stroke-miterlimit="4"/></g><g clip-path="url(#5f6d5cab5b)"><path stroke-linecap="butt" transform="matrix(1.685779, 1.812716, -1.812716, 1.685779, 121.746596, 178.402017)" fill="none" stroke-linejoin="miter" d="M -0.0000598655 1.999983 L 31.256697 2.000299 " stroke="#000000" stroke-width="4" stroke-opacity="1" stroke-miterlimit="4"/></g><g clip-path="url(#96546a7f82)"><path stroke-linecap="butt" transform="matrix(1.449511, -2.006666, 2.006666, 1.449511, 161.513089, 235.516563)" fill="none" stroke-linejoin="miter" d="M 0.000717118 1.999942 L 98.463493 1.999823 " stroke="#000000" stroke-width="4" stroke-opacity="1" stroke-miterlimit="4"/></g><g clip-path="url(#069bef710f)"><path stroke-linecap="butt" transform="matrix(2.211523, -1.112185, 1.112185, 2.211523, 79.624504, 225.872238)" fill="none" stroke-linejoin="miter" d="M -0.000728281 2.000353 L 23.320058 2.000141 " stroke="#000000" stroke-width="4" stroke-opacity="1" stroke-miterlimit="4"/></g><g clip-path="url(#4c777e36e0)"><path stroke-linecap="butt" transform="matrix(1.905178, -1.580534, 1.580534, 1.905178, 70.890403, 210.816662)" fill="none" stroke-linejoin="miter" d="M 1.697841 8.024821 C 6.699666 -0.00875163 45.208497 -0.00810263 117.221905 8.024753 " stroke="#000000" stroke-width="4" stroke-opacity="1" stroke-miterlimit="4"/></g></g></g></svg>