<svg xmlns="http://www.w3.org/2000/svg" xmlns:xlink="http://www.w3.org/1999/xlink" width="500" zoomAndPan="magnify" viewBox="0 0 375 374.999991" height="500" preserveAspectRatio="xMidYMid meet" version="1.0"><defs><g/></defs><g fill="#000000" fill-opacity="1"><g transform="translate(31.037126, 206.061901)"><g><path d="M 26.40625 -64.453125 C 31.757812 -64.453125 36.445312 -63.550781 40.46875 -61.75 C 44.5 -59.945312 47.847656 -57.507812 50.515625 -54.4375 C 53.191406 -51.375 55.207031 -47.921875 56.5625 -44.078125 C 57.914062 -40.234375 58.59375 -36.28125 58.59375 -32.21875 C 58.59375 -28.164062 57.914062 -24.21875 56.5625 -20.375 C 55.207031 -16.53125 53.191406 -13.070312 50.515625 -10 C 47.847656 -6.9375 44.5 -4.503906 40.46875 -2.703125 C 36.445312 -0.898438 31.757812 0 26.40625 0 L 7.21875 0 L 7.21875 -64.453125 Z M 26.40625 -51.5625 L 20.09375 -51.5625 L 20.09375 -12.890625 L 26.40625 -12.890625 C 30.007812 -12.890625 33.085938 -13.578125 35.640625 -14.953125 C 38.203125 -16.335938 40.25 -18.1875 41.78125 -20.5 C 43.3125 -22.820312 44.332031 -25.363281 44.84375 -28.125 C 45.351562 -30.882812 45.351562 -33.628906 44.84375 -36.359375 C 44.332031 -39.097656 43.3125 -41.625 41.78125 -43.9375 C 40.25 -46.25 38.203125 -48.097656 35.640625 -49.484375 C 33.085938 -50.867188 30.007812 -51.5625 26.40625 -51.5625 Z M 26.40625 -51.5625 "/></g></g></g><g fill="#000000" fill-opacity="1"><g transform="translate(94.487825, 206.061901)"><g><path d="M 39.296875 0 L 26.328125 -24.609375 L 20.09375 -24.609375 L 20.09375 0 L 7.21875 0 L 7.21875 -64.453125 L 32.625 -64.453125 C 36.476562 -64.453125 39.738281 -63.65625 42.40625 -62.0625 C 45.082031 -60.46875 47.171875 -58.394531 48.671875 -55.84375 C 50.171875 -53.289062 51.101562 -50.523438 51.46875 -47.546875 C 51.832031 -44.578125 51.609375 -41.664062 50.796875 -38.8125 C 49.984375 -35.957031 48.597656 -33.429688 46.640625 -31.234375 C 44.691406 -29.035156 42.125 -27.488281 38.9375 -26.59375 L 53.90625 0 Z M 20.09375 -37.140625 L 31.453125 -37.140625 C 33.203125 -37.140625 34.601562 -37.617188 35.65625 -38.578125 C 36.707031 -39.535156 37.410156 -40.734375 37.765625 -42.171875 C 38.128906 -43.617188 38.128906 -45.0625 37.765625 -46.5 C 37.410156 -47.945312 36.707031 -49.148438 35.65625 -50.109375 C 34.601562 -51.078125 33.203125 -51.5625 31.453125 -51.5625 L 20.09375 -51.5625 Z M 20.09375 -37.140625 "/></g></g></g><g fill="#000000" fill-opacity="1"><g transform="translate(149.736795, 206.061901)"><g><path d="M 40.5625 0 L 7.21875 0 L 7.21875 -64.453125 L 39.484375 -64.453125 L 39.484375 -51.5625 L 20.09375 -51.5625 L 20.09375 -38.671875 L 37.046875 -38.671875 L 37.046875 -25.78125 L 20.09375 -25.78125 L 20.09375 -12.890625 L 40.5625 -12.890625 Z M 40.5625 0 "/></g></g></g><g fill="#000000" fill-opacity="1"><g transform="translate(195.161722, 206.061901)"><g><path d="M 1.4375 0 L 28.578125 -66.796875 L 29.921875 -66.796875 L 57.0625 0 L 42.546875 0 L 39.9375 -6.9375 L 18.5625 -6.9375 L 16.046875 0 Z M 23.25 -19.015625 L 35.15625 -19.015625 L 29.296875 -35.78125 Z M 23.25 -19.015625 "/></g></g></g><g fill="#000000" fill-opacity="1"><g transform="translate(254.015856, 206.061901)"><g><path d="M 36.78125 -37.140625 L 62.203125 -65.4375 L 66.25 -65.4375 L 66.25 0 L 53.1875 0 L 53.265625 -35.96875 L 36.78125 -18.65625 L 20.28125 -35.96875 L 20.28125 0 L 7.21875 0 L 7.21875 -65.4375 L 11.359375 -65.4375 Z M 36.78125 -37.140625 "/></g></g></g><g fill="#000000" fill-opacity="1"><g transform="translate(31.037126, 278.061896)"><g><path d="M 7.21875 0 L 7.21875 -64.546875 L 32.71875 -64.546875 C 36.5625 -64.546875 39.863281 -63.703125 42.625 -62.015625 C 45.394531 -60.335938 47.515625 -58.023438 48.984375 -55.078125 C 50.460938 -52.128906 51.140625 -48.765625 51.015625 -44.984375 C 50.953125 -42.578125 50.457031 -40.203125 49.53125 -37.859375 C 48.601562 -35.515625 47.113281 -33.648438 45.0625 -32.265625 C 47.164062 -30.828125 48.800781 -28.953125 49.96875 -26.640625 C 51.144531 -24.328125 51.734375 -21.90625 51.734375 -19.375 C 51.734375 -15.769531 50.878906 -12.507812 49.171875 -9.59375 C 47.460938 -6.6875 45.164062 -4.359375 42.28125 -2.609375 C 39.394531 -0.867188 36.207031 0 32.71875 0 Z M 20.1875 -51.65625 L 20.1875 -38.671875 L 31.640625 -38.671875 C 33.503906 -38.671875 34.960938 -39.316406 36.015625 -40.609375 C 37.066406 -41.898438 37.59375 -43.414062 37.59375 -45.15625 C 37.59375 -46.957031 37.066406 -48.488281 36.015625 -49.75 C 34.960938 -51.019531 33.503906 -51.65625 31.640625 -51.65625 Z M 20.1875 -25.78125 L 20.1875 -12.890625 L 31.640625 -12.890625 C 33.503906 -12.890625 35.050781 -13.519531 36.28125 -14.78125 C 37.507812 -16.039062 38.125 -17.570312 38.125 -19.375 C 38.125 -21.175781 37.507812 -22.691406 36.28125 -23.921875 C 35.050781 -25.160156 33.503906 -25.78125 31.640625 -25.78125 Z M 20.1875 -25.78125 "/></g></g></g><g fill="#000000" fill-opacity="1"><g transform="translate(87.007131, 278.061896)"><g><path d="M 40.5625 0 L 7.21875 0 L 7.21875 -64.453125 L 39.484375 -64.453125 L 39.484375 -51.5625 L 20.09375 -51.5625 L 20.09375 -38.671875 L 37.046875 -38.671875 L 37.046875 -25.78125 L 20.09375 -25.78125 L 20.09375 -12.890625 L 40.5625 -12.890625 Z M 40.5625 0 "/></g></g></g><g fill="#000000" fill-opacity="1"><g transform="translate(132.432059, 278.061896)"><g><path d="M 4.234375 -4.140625 L 5.859375 -17.671875 C 8.328125 -15.921875 10.773438 -14.671875 13.203125 -13.921875 C 15.640625 -13.171875 17.847656 -12.734375 19.828125 -12.609375 C 21.816406 -12.492188 23.289062 -12.46875 24.25 -12.53125 C 26.164062 -12.644531 27.800781 -13.316406 29.15625 -14.546875 C 30.507812 -15.785156 31.097656 -17.273438 30.921875 -19.015625 C 30.796875 -20.878906 30.101562 -22.289062 28.84375 -23.25 C 27.582031 -24.21875 26.050781 -25 24.25 -25.59375 C 20.882812 -26.863281 17.742188 -28.320312 14.828125 -29.96875 C 11.910156 -31.625 9.566406 -33.679688 7.796875 -36.140625 C 6.023438 -38.609375 5.140625 -41.644531 5.140625 -45.25 C 5.140625 -48.851562 5.90625 -52.113281 7.4375 -55.03125 C 8.96875 -57.945312 11.113281 -60.273438 13.875 -62.015625 C 16.644531 -63.753906 19.800781 -64.71875 23.34375 -64.90625 C 25.03125 -65.019531 27.085938 -64.957031 29.515625 -64.71875 C 31.953125 -64.476562 35.242188 -63.640625 39.390625 -62.203125 L 37.765625 -49.75 C 34.222656 -51.195312 31.398438 -52.023438 29.296875 -52.234375 C 27.191406 -52.441406 25.628906 -52.519531 24.609375 -52.46875 C 22.328125 -52.34375 20.660156 -51.554688 19.609375 -50.109375 C 18.554688 -48.671875 18.085938 -47.050781 18.203125 -45.25 C 18.390625 -43.445312 19.171875 -42.078125 20.546875 -41.140625 C 21.929688 -40.210938 23.554688 -39.421875 25.421875 -38.765625 C 28.785156 -37.554688 31.878906 -36.066406 34.703125 -34.296875 C 37.523438 -32.523438 39.789062 -30.390625 41.5 -27.890625 C 43.21875 -25.398438 44.078125 -22.441406 44.078125 -19.015625 C 44.078125 -15.472656 43.296875 -12.257812 41.734375 -9.375 C 40.171875 -6.488281 37.929688 -4.171875 35.015625 -2.421875 C 32.097656 -0.679688 28.628906 0.304688 24.609375 0.546875 C 23.410156 0.597656 21.769531 0.550781 19.6875 0.40625 C 17.613281 0.257812 15.253906 -0.15625 12.609375 -0.84375 C 9.972656 -1.539062 7.179688 -2.640625 4.234375 -4.140625 Z M 4.234375 -4.140625 "/></g></g></g><g fill="#000000" fill-opacity="1"><g transform="translate(180.110213, 278.061896)"><g><path d="M 30.734375 0 L 17.84375 0 L 17.84375 -51.5625 L 1.796875 -51.5625 L 1.796875 -64.359375 L 46.78125 -64.359375 L 46.78125 -51.5625 L 30.734375 -51.5625 Z M 30.734375 0 "/></g></g></g><path stroke-linecap="butt" transform="matrix(0.671766, 0.333512, -0.333512, 0.671766, 270.925093, 102.695033)" fill="none" stroke-linejoin="miter" d="M -0.0000124205 2.000746 L 28.365554 2.001769 " stroke="#000000" stroke-width="4" stroke-opacity="1" stroke-miterlimit="4"/><path stroke-linecap="butt" transform="matrix(0.70082, -0.267116, 0.267116, 0.70082, 269.723804, 102.635384)" fill="none" stroke-linejoin="miter" d="M 0.000609064 1.997567 L 129.679796 2.001306 " stroke="#000000" stroke-width="4" stroke-opacity="1" stroke-miterlimit="4"/><path stroke-linecap="butt" transform="matrix(0.650186, -0.373842, 0.373842, 0.650186, 286.1331, 110.793859)" fill="none" stroke-linejoin="miter" d="M -0.00185174 1.998195 L 114.211933 2.002256 " stroke="#000000" stroke-width="4" stroke-opacity="1" stroke-miterlimit="4"/><path stroke-linecap="butt" transform="matrix(0.305012, 0.685177, -0.685177, 0.305012, 289.621773, 112.096046)" fill="none" stroke-linejoin="miter" d="M 0.00040151 2.00225 L 20.343292 1.999025 " stroke="#000000" stroke-width="4" stroke-opacity="1" stroke-miterlimit="4"/><path stroke-linecap="butt" transform="matrix(0.510752, 0.549211, -0.549211, 0.510752, 305.044643, 111.076164)" fill="none" stroke-linejoin="miter" d="M -0.000836129 2.000877 L 31.25767 2.001777 " stroke="#000000" stroke-width="4" stroke-opacity="1" stroke-miterlimit="4"/><path stroke-linecap="butt" transform="matrix(0.439168, -0.607973, 0.607973, 0.439168, 317.092983, 128.38054)" fill="none" stroke-linejoin="miter" d="M 0.000887708 1.998807 L 98.464642 1.99887 " stroke="#000000" stroke-width="4" stroke-opacity="1" stroke-miterlimit="4"/><path stroke-linecap="butt" transform="matrix(0.67004, -0.336966, 0.336966, 0.67004, 292.282632, 125.458585)" fill="none" stroke-linejoin="miter" d="M 0.00162902 1.998147 L 23.319682 2.001024 " stroke="#000000" stroke-width="4" stroke-opacity="1" stroke-miterlimit="4"/><path stroke-linecap="butt" transform="matrix(0.577225, -0.478865, 0.478865, 0.577225, 289.636421, 120.897062)" fill="none" stroke-linejoin="miter" d="M 1.70067 8.024908 C 6.700393 -0.00846102 45.208244 -0.0107857 117.224907 8.025268 " stroke="#000000" stroke-width="4" stroke-opacity="1" stroke-miterlimit="4"/></svg>