<svg width="50" height="50" viewBox="0 0 50 50" fill="none" xmlns="http://www.w3.org/2000/svg">
<path d="M25 0C20.0555 0 15.222 1.46622 11.1108 4.21326C6.99953 6.96029 3.79521 10.8648 1.90302 15.4329C0.0108321 20.0011 -0.484251 25.0277 0.480379 29.8772C1.44501 34.7268 3.82603 39.1813 7.32234 42.6777C10.8187 46.174 15.2732 48.555 20.1228 49.5196C24.9723 50.4842 29.9989 49.9892 34.5671 48.097C39.1352 46.2048 43.0397 43.0005 45.7867 38.8892C48.5338 34.778 50 29.9445 50 25C50 21.7169 49.3534 18.466 48.097 15.4329C46.8406 12.3998 44.9991 9.64379 42.6777 7.32233C40.3562 5.00086 37.6002 3.15938 34.5671 1.90301C31.534 0.646644 28.2831 0 25 0ZM25 45C21.0444 45 17.1776 43.827 13.8886 41.6294C10.5996 39.4318 8.03617 36.3082 6.52242 32.6537C5.00867 28.9991 4.6126 24.9778 5.38431 21.0982C6.15601 17.2186 8.06082 13.6549 10.8579 10.8579C13.6549 8.06081 17.2186 6.156 21.0982 5.38429C24.9778 4.61259 28.9992 5.00866 32.6537 6.52241C36.3082 8.03616 39.4318 10.5996 41.6294 13.8886C43.827 17.1776 45 21.0444 45 25C45 30.3043 42.8929 35.3914 39.1421 39.1421C35.3914 42.8929 30.3043 45 25 45ZM35 22.5H27.5V15C27.5 14.337 27.2366 13.7011 26.7678 13.2322C26.2989 12.7634 25.663 12.5 25 12.5C24.337 12.5 23.7011 12.7634 23.2322 13.2322C22.7634 13.7011 22.5 14.337 22.5 15V22.5H15C14.337 22.5 13.7011 22.7634 13.2322 23.2322C12.7634 23.7011 12.5 24.337 12.5 25C12.5 25.663 12.7634 26.2989 13.2322 26.7678C13.7011 27.2366 14.337 27.5 15 27.5H22.5V35C22.5 35.663 22.7634 36.2989 23.2322 36.7678C23.7011 37.2366 24.337 37.5 25 37.5C25.663 37.5 26.2989 37.2366 26.7678 36.7678C27.2366 36.2989 27.5 35.663 27.5 35V27.5H35C35.663 27.5 36.2989 27.2366 36.7678 26.7678C37.2366 26.2989 37.5 25.663 37.5 25C37.5 24.337 37.2366 23.7011 36.7678 23.2322C36.2989 22.7634 35.663 22.5 35 22.5Z" fill="black" fill-opacity="0.73"/>
</svg>
