<svg xmlns="http://www.w3.org/2000/svg" xmlns:xlink="http://www.w3.org/1999/xlink" width="500" zoomAndPan="magnify" viewBox="0 0 375 374.999991" height="500" preserveAspectRatio="xMidYMid meet" version="1.0"><defs><clipPath id="79b9a9d530"><path d="M 0.28125 99 L 126 99 L 126 243 L 0.28125 243 Z M 0.28125 99 " clip-rule="nonzero"/></clipPath><clipPath id="4dff150e17"><path d="M 0.28125 0 L 337.960938 0 L 337.960938 212 L 0.28125 212 Z M 0.28125 0 " clip-rule="nonzero"/></clipPath><clipPath id="38fa68d435"><path d="M 5 0 L 337.960938 0 L 337.960938 238 L 5 238 Z M 5 0 " clip-rule="nonzero"/></clipPath><clipPath id="3843e03531"><path d="M 10 127 L 143 127 L 143 254.398438 L 10 254.398438 Z M 10 127 " clip-rule="nonzero"/></clipPath><clipPath id="3a79d06c82"><path d="M 62 125 L 227 125 L 227 254.398438 L 62 254.398438 Z M 62 125 " clip-rule="nonzero"/></clipPath><clipPath id="d18ecfd93e"><path d="M 109 0 L 337.960938 0 L 337.960938 254.398438 L 109 254.398438 Z M 109 0 " clip-rule="nonzero"/></clipPath><clipPath id="ff530664c9"><path d="M 25 148 L 190 148 L 190 254.398438 L 25 254.398438 Z M 25 148 " clip-rule="nonzero"/></clipPath><clipPath id="9946cdf3a2"><path d="M 30 0 L 337.960938 0 L 337.960938 254.398438 L 30 254.398438 Z M 30 0 " clip-rule="nonzero"/></clipPath><clipPath id="77c9154ead"><rect x="0" width="338" y="0" height="255"/></clipPath></defs><g transform="matrix(1, 0, 0, 1, 29, 54)"><g clip-path="url(#77c9154ead)"><g clip-path="url(#79b9a9d530)"><path stroke-linecap="butt" transform="matrix(2.21722, 1.100783, -1.100783, 2.21722, 9.13213, 150.73988)" fill="none" stroke-linejoin="miter" d="M -0.0000543385 2.000686 L 28.362342 1.999738 " stroke="#ffffff" stroke-width="4" stroke-opacity="1" stroke-miterlimit="4"/></g><g clip-path="url(#4dff150e17)"><path stroke-linecap="butt" transform="matrix(2.313116, -0.881637, 0.881637, 2.313116, 5.167179, 150.542593)" fill="none" stroke-linejoin="miter" d="M -0.000165935 1.999567 L 129.679453 2.000547 " stroke="#ffffff" stroke-width="4" stroke-opacity="1" stroke-miterlimit="4"/></g><g clip-path="url(#38fa68d435)"><path stroke-linecap="butt" transform="matrix(2.145993, -1.233898, 1.233898, 2.145993, 59.327455, 177.470346)" fill="none" stroke-linejoin="miter" d="M 0.000692269 2.000112 L 114.212489 2.000066 " stroke="#ffffff" stroke-width="4" stroke-opacity="1" stroke-miterlimit="4"/></g><g clip-path="url(#3843e03531)"><path stroke-linecap="butt" transform="matrix(1.006717, 2.261484, -2.261484, 1.006717, 70.842064, 181.768607)" fill="none" stroke-linejoin="miter" d="M -0.0000918482 1.999421 L 20.343944 1.999516 " stroke="#ffffff" stroke-width="4" stroke-opacity="1" stroke-miterlimit="4"/></g><g clip-path="url(#3a79d06c82)"><path stroke-linecap="butt" transform="matrix(1.685779, 1.812716, -1.812716, 1.685779, 121.746596, 178.402017)" fill="none" stroke-linejoin="miter" d="M -0.0000598655 1.999983 L 31.256697 2.000299 " stroke="#ffffff" stroke-width="4" stroke-opacity="1" stroke-miterlimit="4"/></g><g clip-path="url(#d18ecfd93e)"><path stroke-linecap="butt" transform="matrix(1.449511, -2.006666, 2.006666, 1.449511, 161.513089, 235.516563)" fill="none" stroke-linejoin="miter" d="M 0.000717118 1.999942 L 98.463493 1.999823 " stroke="#ffffff" stroke-width="4" stroke-opacity="1" stroke-miterlimit="4"/></g><g clip-path="url(#ff530664c9)"><path stroke-linecap="butt" transform="matrix(2.211523, -1.112185, 1.112185, 2.211523, 79.624504, 225.872238)" fill="none" stroke-linejoin="miter" d="M -0.000728281 2.000353 L 23.320058 2.000141 " stroke="#ffffff" stroke-width="4" stroke-opacity="1" stroke-miterlimit="4"/></g><g clip-path="url(#9946cdf3a2)"><path stroke-linecap="butt" transform="matrix(1.905178, -1.580534, 1.580534, 1.905178, 70.890403, 210.816662)" fill="none" stroke-linejoin="miter" d="M 1.697841 8.024821 C 6.699666 -0.00875163 45.208497 -0.00810263 117.221905 8.024753 " stroke="#ffffff" stroke-width="4" stroke-opacity="1" stroke-miterlimit="4"/></g></g></g></svg>